<svg width="1100" height="210" viewBox="0 0 1100 210" fill="none" xmlns="http://www.w3.org/2000/svg">
  <rect width="1100" height="210" rx="28" fill="#F5F7FB"/>
  <path d="M241 105H308" stroke="#9CA3AF" stroke-width="4" stroke-linecap="round"/>
  <path d="M292 88L310 105L292 122" stroke="#9CA3AF" stroke-width="4" stroke-linecap="round" stroke-linejoin="round"/>
  <path d="M515 105H582" stroke="#9CA3AF" stroke-width="4" stroke-linecap="round"/>
  <path d="M566 88L584 105L566 122" stroke="#9CA3AF" stroke-width="4" stroke-linecap="round" stroke-linejoin="round"/>
  <path d="M789 105H856" stroke="#9CA3AF" stroke-width="4" stroke-linecap="round"/>
  <path d="M840 88L858 105L840 122" stroke="#9CA3AF" stroke-width="4" stroke-linecap="round" stroke-linejoin="round"/>
  <g>
    <rect x="54" y="42" width="186" height="126" rx="22" fill="#FFFFFF"/>
    <circle cx="108" cy="91" r="24" fill="#FF3B30"/>
    <text x="54" y="35" fill="#111827" font-family="Segoe UI, Arial, sans-serif" font-size="18" font-weight="700"></text>
    <text x="86" y="135" fill="#111827" font-family="Segoe UI, Arial, sans-serif" font-size="24" font-weight="800">Record</text>
  </g>
  <g>
    <rect x="328" y="42" width="186" height="126" rx="22" fill="#FFFFFF"/>
    <rect x="385" y="73" width="72" height="50" rx="12" fill="#0A84FF"/>
    <circle cx="421" cy="98" r="14" fill="#FFFFFF"/>
    <text x="381" y="135" fill="#111827" font-family="Segoe UI, Arial, sans-serif" font-size="24" font-weight="800">Present</text>
  </g>
  <g>
    <rect x="602" y="42" width="186" height="126" rx="22" fill="#FFFFFF"/>
    <rect x="650" y="78" width="90" height="18" rx="9" fill="#34C759"/>
    <rect x="650" y="107" width="62" height="18" rx="9" fill="#64D2FF"/>
    <text x="667" y="135" fill="#111827" font-family="Segoe UI, Arial, sans-serif" font-size="24" font-weight="800">Polish</text>
  </g>
  <g>
    <rect x="876" y="42" width="186" height="126" rx="22" fill="#FFFFFF"/>
    <path d="M942 82H997V121H942V82Z" fill="#111827"/>
    <path d="M952 94H987" stroke="#FFFFFF" stroke-width="5" stroke-linecap="round"/>
    <path d="M952 109H976" stroke="#FFFFFF" stroke-width="5" stroke-linecap="round"/>
    <text x="937" y="135" fill="#111827" font-family="Segoe UI, Arial, sans-serif" font-size="24" font-weight="800">Keep</text>
  </g>
</svg>
